<svg xmlns="http://www.w3.org/2000/svg" viewBox="0 0 1000 600">
  <path fill="#016FD0" d="M1000 540c0 33.1-26.9 60-60 60H60c-33.1 0-60-26.9-60-60V60C0 26.9 26.9 0 60 0h880c33.1 0 60 26.9 60 60v480z"/>
  <path fill="#FFFFFF" d="M621.4 303.1L650 207.8h46.1l28.6 95.3h-46.1l-5.2-19.1h-53.9l-5.2 19.1h-46.1l53.2-95.3zm41-68.2l-10.4 37.4h31.3l-10.4-37.4h-10.4zM455.2 207.8h59.1c16.5 0 28.6 11.3 28.6 26.1 0 10.4-7 18.3-15.7 20.9 8.7 2.6 15.7 11.3 15.7 22.6 0 15.7-12.2 25.2-28.6 25.2h-59.1v-95.3l-.9.5zm46.1 37.4c5.2 0 8.7-3.5 8.7-8.7s-3.5-8.7-8.7-8.7h-19.1v17.4h19.1zm0 37.4c5.2 0 8.7-3.5 8.7-8.7s-3.5-8.7-8.7-8.7h-19.1v17.4h19.1zM404.3 207.8h46.1v95.3h-46.1zM323.4 207.8h46.1v35.6l33.9-35.6h56.5l-41.7 41.7 41.7 53.5h-56.5l-24.3-32.1-9.6 9.6v22.6h-46.1zM249.9 207.8h93.9v20h-47.8v16.5h46.1v20h-46.1v18.3h47.8v20h-93.9z"/>
  <path fill="#016FD0" d="M621.4 392.2L650 297h46.1l28.6 95.3h-46.1l-5.2-19.1h-53.9l-5.2 19.1h-46.1l53.2-95.3zm41-68.2l-10.4 37.4h31.3l-10.4-37.4h-10.4zM455.2 297h59.1c16.5 0 28.6 11.3 28.6 26.1 0 10.4-7 18.3-15.7 20.9 8.7 2.6 15.7 11.3 15.7 22.6 0 15.7-12.2 25.2-28.6 25.2h-59.1V297zm46.1 37.4c5.2 0 8.7-3.5 8.7-8.7s-3.5-8.7-8.7-8.7h-19.1v17.4h19.1zm0 37.4c5.2 0 8.7-3.5 8.7-8.7s-3.5-8.7-8.7-8.7h-19.1v17.4h19.1zM404.3 297h46.1v95.3h-46.1zM323.4 297h46.1v35.6l33.9-35.6h56.5l-41.7 41.7 41.7 53.5h-56.5l-24.3-32.1-9.6 9.6v22.6h-46.1zM249.9 297h93.9v20h-47.8v16.5h46.1v20h-46.1v18.3h47.8v20h-93.9z"/>
</svg>
