<svg xmlns="http://www.w3.org/2000/svg" viewBox="0 0 1000 600">
  <path fill="#FFFFFF" d="M1000 540c0 33.1-26.9 60-60 60H60c-33.1 0-60-26.9-60-60V60C0 26.9 26.9 0 60 0h880c33.1 0 60 26.9 60 60v480z"/>
  <path fill="#F47216" d="M1000 300v240c0 33.1-26.9 60-60 60H60c-33.1 0-60-26.9-60-60V300h1000z"/>
  <path fill="#231F20" d="M370.4 300c0-33.1 26.9-60 60-60h60c33.1 0 60 26.9 60 60s-26.9 60-60 60h-60c-33.1 0-60-26.9-60-60z"/>
  <path fill="#F47216" d="M370.4 300c0-33.1 26.9-60 60-60h60c33.1 0 60 26.9 60 60s-26.9 60-60 60h-60c-33.1 0-60-26.9-60-60z"/>
  <path fill="#FFFFFF" d="M150 270h30v60h-30zM200 270h30l40 60h-30zM260 270h30v60h-30zM310 270h30v60h-30zM360 270h30l-40 60h-30zM600 270h30v60h-30zM650 270h30v60h-30zM700 270h30v60h-30zM750 270h30v60h-30zM800 270h30v60h-30z"/>
</svg>
