<svg xmlns="http://www.w3.org/2000/svg" viewBox="0 0 1000 600">
  <path fill="#FFFFFF" d="M1000 540c0 33.1-26.9 60-60 60H60c-33.1 0-60-26.9-60-60V60C0 26.9 26.9 0 60 0h880c33.1 0 60 26.9 60 60v480z"/>
  <path fill="#0E4C96" d="M700 150h100c33.1 0 60 26.9 60 60v180c0 33.1-26.9 60-60 60H700V150z"/>
  <path fill="#17B5E6" d="M500 150h100c33.1 0 60 26.9 60 60v180c0 33.1-26.9 60-60 60H500V150z"/>
  <path fill="#E30138" d="M300 150h100c33.1 0 60 26.9 60 60v180c0 33.1-26.9 60-60 60H300V150z"/>
  <path fill="#FFFFFF" d="M326 270c0-16.6 13.4-30 30-30h18c16.6 0 30 13.4 30 30v60c0 16.6-13.4 30-30 30h-18c-16.6 0-30-13.4-30-30v-60zM526 270c0-16.6 13.4-30 30-30h18c16.6 0 30 13.4 30 30v60c0 16.6-13.4 30-30 30h-18c-16.6 0-30-13.4-30-30v-60zM726 270c0-16.6 13.4-30 30-30h18c16.6 0 30 13.4 30 30v60c0 16.6-13.4 30-30 30h-18c-16.6 0-30-13.4-30-30v-60z"/>
</svg>
