<svg xmlns="http://www.w3.org/2000/svg" viewBox="0 0 1000 618">
  <path fill="#FFFFFF" d="M1000 558c0 33.1-26.9 60-60 60H60c-33.1 0-60-26.9-60-60V60C0 26.9 26.9 0 60 0h880c33.1 0 60 26.9 60 60v498z"/>
  <path fill="#FF5F00" d="M380 309c0-99.4 46.6-188 119.2-245h-238.4C184.6 121 138 209.6 138 309s46.6 188 122.8 245h238.4C426.6 497 380 408.4 380 309z"/>
  <path fill="#EB001B" d="M380 309c0 99.4 46.6 188 119.2 245 72.6-57 119.2-145.6 119.2-245S571.8 121 499.2 64C426.6 121 380 209.6 380 309z"/>
  <path fill="#F79E1B" d="M862 309c0 99.4-46.6 188-119.2 245 72.6 57 175.8 57 248.4 0 72.6-57 119.2-145.6 119.2-245s-46.6-188-119.2-245c-72.6-57-175.8-57-248.4 0C815.4 121 862 209.6 862 309z"/>
</svg>
