<svg xmlns="http://www.w3.org/2000/svg" viewBox="0 0 1000 324">
  <path fill="#00579F" d="M651.3 0H348.7C156.1 0 0 72.5 0 162v162h1000V162C1000 72.5 843.9 0 651.3 0z"/>
  <path fill="#FAA61A" d="M1000 162v162H0V162c0 89.5 156.1 162 348.7 162h302.6C843.9 324 1000 251.5 1000 162z"/>
  <path fill="#FFFFFF" d="M416.7 152.6l-81.9 190.9h-53.1l-40.3-156.4c-2.4-9.6-4.6-13.1-12-17.1-12.1-6.6-32.1-12.8-49.7-16.6l1.2-5.7h85.7c10.9 0 20.7 7.3 23.2 19.9l21.2 112.5 52.3-132.4h53.4zm208.2 127.2c.2-51.6-71.4-54.4-70.9-77.5.2-7 6.8-14.5 21.4-16.4 7.2-1 27.1-1.7 49.7 9l8.8-41.2c-12.1-4.4-27.8-8.6-47.2-8.6-49.9 0-85 26.5-85.2 64.4-.3 28.1 25.1 43.7 44.2 53 19.7 9.5 26.3 15.7 26.2 24.2-.1 13.1-15.7 18.9-30.2 19.1-25.4.4-40.2-6.9-51.9-12.4l-9.2 42.9c11.8 5.4 33.6 10.1 56.2 10.4 53.1 0 87.8-26.2 87.9-66.9m131.2 63.7h46.5l-40.6-190.9h-42.9c-9.7 0-17.9 5.6-21.5 14.3l-75.9 176.6h52.8l10.6-29.2h65l5 29.2zm-56.8-70.9l26.8-73.9 15.4 73.9h-42.2zm-292.5-120h-41.2l-1.2 7.9c-32-10.8-41.3-2.1-53.7 23.6l37.3 159.4h53.1l54.5-190.9z"/>
</svg>
